<mxfile host="app.diagrams.net" modified="2024-02-02T06:05:10.231Z" agent="Mozilla/5.0 (Macintosh; Intel Mac OS X 10_15_7) AppleWebKit/537.36 (KHTML, like Gecko) Chrome/120.0.0.0 Safari/537.36 OPR/106.0.0.0" version="23.1.1" etag="xPuqYILfF4OpZcQOYdCD" type="github">
  <diagram name="Page-1" id="kRZ1ahykPFb0b6-cN-Dm">
    <mxGraphModel>
      <root>
        <mxCell id="0" />
        <mxCell id="1" parent="0" />
      </root>
    </mxGraphModel>
  </diagram>
</mxfile>
